<?xml version="1.0" encoding="UTF-8" standalone="no"?>
<svg
   xmlns:dc="http://purl.org/dc/elements/1.1/"
   xmlns:cc="http://creativecommons.org/ns#"
   xmlns:rdf="http://www.w3.org/1999/02/22-rdf-syntax-ns#"
   xmlns:svg="http://www.w3.org/2000/svg"
   xmlns="http://www.w3.org/2000/svg"
   xmlns:sodipodi="http://sodipodi.sourceforge.net/DTD/sodipodi-0.dtd"
   xmlns:inkscape="http://www.inkscape.org/namespaces/inkscape"
   viewBox="0 0 48 60"
   x="0px"
   y="0px"
   version="1.1"
   id="svg52"
   sodipodi:docname="first-feature-icon.svg"
   inkscape:version="1.0.2 (e86c8708, 2021-01-15)">
  <metadata
     id="metadata58">
    <rdf:RDF>
      <cc:Work
         rdf:about="">
        <dc:format>image/svg+xml</dc:format>
        <dc:type
           rdf:resource="http://purl.org/dc/dcmitype/StillImage" />
      </cc:Work>
    </rdf:RDF>
  </metadata>
  <defs
     id="defs56" />
  <sodipodi:namedview
     pagecolor="#ffffff"
     bordercolor="#666666"
     borderopacity="1"
     objecttolerance="10"
     gridtolerance="10"
     guidetolerance="10"
     inkscape:pageopacity="0"
     inkscape:pageshadow="2"
     inkscape:window-width="1440"
     inkscape:window-height="847"
     id="namedview54"
     showgrid="false"
     inkscape:zoom="11.116667"
     inkscape:cx="22.38081"
     inkscape:cy="31.97901"
     inkscape:window-x="0"
     inkscape:window-y="25"
     inkscape:window-maximized="1"
     inkscape:current-layer="svg52" />
  <g
     id="g46">
    <circle
       cx="8.5"
       cy="12.5"
       r="1.5"
       id="circle10" />
    <circle
       cx="15.5"
       cy="12.5"
       r="1.5"
       id="circle12" />
    <circle
       cx="22.5"
       cy="12.5"
       r="1.5"
       id="circle14" />
    <circle
       cx="29.5"
       cy="12.5"
       r="1.5"
       id="circle16" />
    <circle
       cx="36.5"
       cy="12.5"
       r="1.5"
       id="circle18" />
    <circle
       cx="8.5"
       cy="18.5"
       r="1.5"
       id="circle20" />
    <circle
       cx="15.5"
       cy="18.5"
       r="1.5"
       id="circle22" />
    <circle
       cx="22.5"
       cy="18.5"
       r="1.5"
       id="circle24" />
    <circle
       cx="29.5"
       cy="18.5"
       r="1.5"
       id="circle26" />
    <circle
       cx="36.5"
       cy="18.5"
       r="1.5"
       id="circle28" />
    <circle
       cx="8.5"
       cy="24.5"
       r="1.5"
       id="circle30" />
    <circle
       cx="15.5"
       cy="24.5"
       r="1.5"
       id="circle32" />
    <circle
       cx="22.5"
       cy="24.5"
       r="1.5"
       id="circle34" />
    <circle
       cx="8.5"
       cy="30.5"
       r="1.5"
       id="circle36" />
    <circle
       cx="15.5"
       cy="30.5"
       r="1.5"
       id="circle38" />
    <path
       d="M43,26.09851V9a3.00328,3.00328,0,0,0-3-3H37V3a1,1,0,0,0-2,0V6H28V3a1,1,0,0,0-2,0V6H19V3a1,1,0,0,0-2,0V6H10V3A1,1,0,0,0,8,3V6H5A3.00328,3.00328,0,0,0,2,9V38a3.00328,3.00328,0,0,0,3,3H24.273A11.98184,11.98184,0,1,0,43,26.09851ZM5,39a1.00067,1.00067,0,0,1-1-1V9A1.00067,1.00067,0,0,1,5,8H40a1.00067,1.00067,0,0,1,1,1V24.273A11.97687,11.97687,0,0,0,23.10529,39Zm29,5A10,10,0,1,1,44,34,10.01177,10.01177,0,0,1,34,44Z"
       id="path40" />
    <path
       d="M39,33H35V27a1,1,0,0,0-2,0v7a.99943.99943,0,0,0,1,1h5a1,1,0,0,0,0-2Z"
       id="path42" />
    <path
       d="M19,35H8a1,1,0,0,0,0,2H19a1,1,0,0,0,0-2Z"
       id="path44" />
  </g>
</svg>
