<?xml version="1.0" encoding="UTF-8" standalone="no"?>
<svg
   xmlns:dc="http://purl.org/dc/elements/1.1/"
   xmlns:cc="http://creativecommons.org/ns#"
   xmlns:rdf="http://www.w3.org/1999/02/22-rdf-syntax-ns#"
   xmlns:svg="http://www.w3.org/2000/svg"
   xmlns="http://www.w3.org/2000/svg"
   xmlns:sodipodi="http://sodipodi.sourceforge.net/DTD/sodipodi-0.dtd"
   xmlns:inkscape="http://www.inkscape.org/namespaces/inkscape"
   version="1.1"
   x="0px"
   y="0px"
   viewBox="0 0 64 80"
   style="enable-background:new 0 0 64 64;"
   xml:space="preserve"
   id="svg76"
   sodipodi:docname="second-feature-icon.svg"
   inkscape:version="1.0.2 (e86c8708, 2021-01-15)"><metadata
     id="metadata82"><rdf:RDF><cc:Work
         rdf:about=""><dc:format>image/svg+xml</dc:format><dc:type
           rdf:resource="http://purl.org/dc/dcmitype/StillImage" /></cc:Work></rdf:RDF></metadata><defs
     id="defs80" /><sodipodi:namedview
     pagecolor="#ffffff"
     bordercolor="#666666"
     borderopacity="1"
     objecttolerance="10"
     gridtolerance="10"
     guidetolerance="10"
     inkscape:pageopacity="0"
     inkscape:pageshadow="2"
     inkscape:window-width="1440"
     inkscape:window-height="847"
     id="namedview78"
     showgrid="false"
     inkscape:zoom="8.3375"
     inkscape:cx="26.722639"
     inkscape:cy="63.988006"
     inkscape:window-x="0"
     inkscape:window-y="25"
     inkscape:window-maximized="1"
     inkscape:current-layer="svg76" /><path
     d="M7,38h8c0.347,0,0.668-0.18,0.851-0.475s0.199-0.663,0.044-0.973l-4-8c-0.339-0.678-1.45-0.678-1.789,0l-4,8  c-0.155,0.31-0.138,0.678,0.044,0.973S6.653,38,7,38z M11,31.236L13.382,36H8.618L11,31.236z"
     id="path60" /><path
     d="M21,38h8c0.552,0,1-0.447,1-1v-8c0-0.553-0.448-1-1-1h-8c-0.552,0-1,0.447-1,1v8C20,37.553,20.448,38,21,38z M22,30h6v6h-6  V30z"
     id="path62" /><path
     d="M39,38c2.757,0,5-2.243,5-5s-2.243-5-5-5s-5,2.243-5,5S36.243,38,39,38z M39,30c1.654,0,3,1.346,3,3s-1.346,3-3,3  s-3-1.346-3-3S37.346,30,39,30z"
     id="path64" /><path
     d="M48.553,35.895l4,2C52.693,37.965,52.847,38,53,38s0.307-0.035,0.447-0.105l4-2C57.786,35.725,58,35.379,58,35v-4  c0-0.379-0.214-0.725-0.553-0.895l-4-2c-0.281-0.141-0.613-0.141-0.895,0l-4,2C48.214,30.275,48,30.621,48,31v4  C48,35.379,48.214,35.725,48.553,35.895z M50,31.618l3-1.5l3,1.5v2.764l-3,1.5l-3-1.5V31.618z"
     id="path66" /><path
     d="M61,24H33v-4h22c0.552,0,1-0.447,1-1v-3.434l4.515-2.709C60.816,12.677,61,12.352,61,12V6c0-0.352-0.184-0.677-0.485-0.857  l-5-3c-0.317-0.189-0.712-0.189-1.029,0l-5,3C49.184,5.323,49,5.648,49,6v6c0,0.352,0.184,0.677,0.485,0.857L54,15.566V18H40v-3.09  c2.833-0.478,5-2.942,5-5.91c0-3.309-2.691-6-6-6s-6,2.691-6,6c0,2.967,2.167,5.431,5,5.91V18H25v-3h4c0.552,0,1-0.447,1-1V4  c0-0.553-0.448-1-1-1H19c-0.552,0-1,0.447-1,1v10c0,0.553,0.448,1,1,1h4v3H9v-3h4c0.34,0,0.657-0.173,0.841-0.459  c0.184-0.285,0.21-0.646,0.069-0.955l-5-11C8.748,2.229,8.392,2,8,2S7.252,2.229,7.09,2.586l-5,11  c-0.141,0.31-0.115,0.67,0.069,0.955C2.343,14.827,2.66,15,3,15h4v4c0,0.553,0.448,1,1,1h23v4H3c-0.552,0-1,0.447-1,1v16  c0,0.553,0.448,1,1,1h28v4.069c-3.94,0.495-7,3.859-7,7.931c0,4.411,3.589,8,8,8s8-3.589,8-8c0-4.072-3.06-7.436-7-7.931V42h28  c0.552,0,1-0.447,1-1V25C62,24.447,61.552,24,61,24z M51,6.566l4-2.4l4,2.4v4.867l-4,2.4l-4-2.4V6.566z M35,9c0-2.206,1.794-4,4-4  s4,1.794,4,4s-1.794,4-4,4S35,11.206,35,9z M20,5h8v8h-8V5z M8,5.417L11.447,13H4.553L8,5.417z M38,54c0,3.309-2.691,6-6,6  s-6-2.691-6-6s2.691-6,6-6S38,50.691,38,54z M60,40H4V26h56V40z"
     id="path68" /><path
     d="M29.707,53.293l-1.414,1.414l2,2C30.488,56.902,30.744,57,31,57s0.512-0.098,0.707-0.293l4-4l-1.414-1.414L31,54.586  L29.707,53.293z"
     id="path70" /></svg>
